<svg xmlns="http://www.w3.org/2000/svg" viewBox="0 0 720.87 575"><defs><style>.cls-1{fill:#f5e6cc;}.cls-1,.cls-2{opacity:0.6;}.cls-2{fill:#e4af8b;}.cls-3{fill:#00a896;opacity:0.71;}</style></defs><g id="Layer_2" data-name="Layer 2"><g id="Layer_1-2" data-name="Layer 1"><path class="cls-1" d="M227.42,0H134.26C47.06,46-10.31,107.67,1.55,188.07c4.79,32.49,20.89,68.05,45.33,104a285.43,285.43,0,0,1,25.41-46C48.68,170.31,120.75,81.11,227.42,0Z"/><path class="cls-1" d="M720.87,457.33C690,478.18,653.54,495.45,611.16,507.7c-79.59,23-179.86,28.65-274.43,18.87,80.18,36.75,163.26,56.14,235.13,45.55,57-8.4,106.84-35.81,149-74.7Z"/><path class="cls-2" d="M46.88,292.08c-13.37,31.32-17.64,61.31-9.92,88,23.22,80.3,154.81,131.48,299.77,146.46C218.9,472.57,107.35,381.06,46.88,292.08Z"/><path class="cls-1" d="M611.16,507.7c42.38-12.25,78.86-29.52,109.71-50.37V364.11q-2.36,1.18-4.73,2.34C498.93,471.48,139.65,387.9,77.81,260a101.79,101.79,0,0,1-5.52-14,285.43,285.43,0,0,0-25.41,46c60.47,89,172,180.49,289.85,234.49C431.3,536.35,531.57,530.71,611.16,507.7Z"/><path class="cls-2" d="M611.16,507.7c42.38-12.25,78.86-29.52,109.71-50.37V364.11q-2.36,1.18-4.73,2.34C498.93,471.48,139.65,387.9,77.81,260a101.79,101.79,0,0,1-5.52-14,285.43,285.43,0,0,0-25.41,46c60.47,89,172,180.49,289.85,234.49C431.3,536.35,531.57,530.71,611.16,507.7Z"/><path class="cls-1" d="M72.29,246c63.39-94.81,194-193.21,318.3-246H227.42C120.75,81.11,48.68,170.31,72.29,246Z"/><path class="cls-3" d="M72.29,246c63.39-94.81,194-193.21,318.3-246H227.42C120.75,81.11,48.68,170.31,72.29,246Z"/><path class="cls-1" d="M72.29,246a101.79,101.79,0,0,0,5.52,14C139.65,387.9,498.93,471.48,716.14,366.45q2.37-1.15,4.73-2.34V0H390.59C266.25,52.82,135.68,151.22,72.29,246Z"/><path class="cls-2" d="M72.29,246a101.79,101.79,0,0,0,5.52,14C139.65,387.9,498.93,471.48,716.14,366.45q2.37-1.15,4.73-2.34V0H390.59C266.25,52.82,135.68,151.22,72.29,246Z"/><path class="cls-3" d="M72.29,246a101.79,101.79,0,0,0,5.52,14C139.65,387.9,498.93,471.48,716.14,366.45q2.37-1.15,4.73-2.34V0H390.59C266.25,52.82,135.68,151.22,72.29,246Z"/></g></g></svg>