<svg id="Layer_1" data-name="Layer 1" xmlns="http://www.w3.org/2000/svg" xmlns:xlink="http://www.w3.org/1999/xlink" viewBox="0 0 167.17 444"><defs><style>.cls-1{fill:none;}.cls-2{fill:#f6f3ec;}.cls-3{fill:#a0c9c5;}.cls-4{fill:#568d91;}.cls-5{fill:#f0c3c0;}.cls-6{fill:#cfb060;}.cls-7{fill:#016280;}.cls-8{fill:#fff;}.cls-9{fill:#ffddc0;}.cls-10{fill:url(#blob-pattern);}.cls-11{fill:#333;}.cls-12{fill:#f7d5bb;}.cls-13{fill:#c69c6d;}.cls-14{fill:#ebc3ab;}.cls-15{fill:#cb8188;}.cls-16{opacity:0.11;}.cls-17{fill:#435b77;}.cls-18{fill:#666;stroke:#231f20;stroke-miterlimit:10;stroke-width:0.2px;}.cls-19{fill:#f5d2a0;}.cls-20{fill:url(#blob-pattern-5);}</style><pattern id="blob-pattern" data-name="blob-pattern" width="40.09" height="41.53" patternTransform="translate(-96.81 -53.05) scale(1.33)" patternUnits="userSpaceOnUse" viewBox="0 0 40.09 41.53"><rect class="cls-1" width="40.09" height="41.53"/><path class="cls-2" d="M28.08,31.6c0-8-15.28-.83-17.52,2.81-1.48,2.22-.78,4.81.76,7.12H23.43C23.86,36.94,27.42,35.74,28.08,31.6Z"/><path class="cls-3" d="M6.33,15.52a3.49,3.49,0,0,0,.9-1.22A19.52,19.52,0,0,1,8.81,11a3.48,3.48,0,0,1,.46-.57,10.64,10.64,0,0,1,1.3-1.3c1.1-.86,2.81-1.87,2.18-3.51S10.16,3,8.5,2.46a5.31,5.31,0,0,0-.89-.13,4.78,4.78,0,0,0-.85,0A6,6,0,0,0,1.4,6.81a8.24,8.24,0,0,0-.24,1,7,7,0,0,0,0,2.24,6.26,6.26,0,0,0,.14.73,10.19,10.19,0,0,0,2.4,4.41,2,2,0,0,0,2.11.64A2.44,2.44,0,0,0,6.33,15.52Z"/><path class="cls-2" d="M23.51,3.32A19,19,0,0,1,23.43,0H11.32a20.38,20.38,0,0,0,6.07,6.94C19.7,8.64,23.55,7.29,23.51,3.32Z"/><path class="cls-4" d="M0,17V41.53H2.26A66.3,66.3,0,0,0,8,29.63l.28-.76a28.12,28.12,0,0,0,1.25-6.45,2.83,2.83,0,0,0-1.73-3,3.36,3.36,0,0,0-.77-.2c-.52-.09-1.07-.1-1.58-.21l-.71-.13a5.39,5.39,0,0,1-2-.83c-.22-.12-.44-.22-.67-.33A12.79,12.79,0,0,0,0,17Z"/><path class="cls-4" d="M40.09,41.53V17a8.51,8.51,0,0,0-2.85-.21c-5.92.87-6.19,8.09-7.11,12.91-.75,3.27-1.92,8.76-1.77,10.08a4.08,4.08,0,0,0,.57,1.71Z"/><path class="cls-4" d="M2.26,0H0V2.83A15.81,15.81,0,0,0,2.26,0Z"/><path class="cls-4" d="M40.09,2.83V0H28.93c1.86,3.11,6.4,5.11,9.59,3.89A5.06,5.06,0,0,0,40.09,2.83Z"/><path class="cls-5" d="M21.81,13.52c-4.74-7.14-11.36-3.28-11.62,2.89,0,.35,0,.7,0,1.05a4.43,4.43,0,0,0,.51,1.83,3.77,3.77,0,0,0,.34.54c.14.21.27.4.42.6s.29.38.45.57.22.21.33.33c.68.62,1.48.9,1.9,1.74,1,1.87,2.28,4,4.45,3.58a3.2,3.2,0,0,0,.81-.2C23,25.1,24.3,18.35,21.81,13.52Z"/><path class="cls-6" d="M33.57,14.6l-.07,0h0C33.66,14.53,33.63,14.56,33.57,14.6Z"/><path class="cls-6" d="M35.91,10.1l0,0s0,0-.06-.09Z"/><path class="cls-6" d="M28.27,17.31l-.07,0h0C28.29,17.28,28.3,17.29,28.27,17.31Z"/><path class="cls-6" d="M35,13.75Z"/><polygon class="cls-6" points="27.61 17.39 27.61 17.39 27.6 17.38 27.6 17.38 27.61 17.39"/><path class="cls-6" d="M27.58,17.37l-.07,0h0l.08.05Z"/><path class="cls-6" d="M27.74,17.41h0l-.08,0Z"/><path class="cls-7" d="M37.28,14.07c-1.09,1.55-3.58,1.34-4.52,2.93-2.29,3.89-6.67,4.88-7.87-1.05-.63-3.14-3.4-6.46-.22-10,3.41-3.8,6.31-1.51,9.18.28S39.57,10.84,37.28,14.07Z"/><path class="cls-6" d="M27.6,17.38h0l.07,0Z"/><path class="cls-3" d="M27.22,21.45a2.71,2.71,0,0,0-1,.21,2.91,2.91,0,0,0-.76.49c-.8.74-2,1.74-1.52,2.92.57,1.52,2.54,1.88,3.95,1.42a2.29,2.29,0,0,0,1.36-1.28,2.52,2.52,0,0,0,.19-.81A2.84,2.84,0,0,0,27.22,21.45Z"/><path class="cls-7" d="M10.26,26.91a2.72,2.72,0,0,0,0,2.72A2.34,2.34,0,0,0,12,30.75a2.55,2.55,0,0,0,2.51-1.46,3.57,3.57,0,0,0-.37-3.41,1.72,1.72,0,0,0-2-.66,3.73,3.73,0,0,0-1.51,1.24A3.28,3.28,0,0,0,10.26,26.91Z"/><path class="cls-5" d="M8.78,40.45c0-.88,0-2.12-.95-2.44-1.2-.41-2.41.66-2.85,1.79a2,2,0,0,0,.07,1.52l.12.21H8.56a2.37,2.37,0,0,0,.13-.34A2.31,2.31,0,0,0,8.78,40.45Z"/><path class="cls-5" d="M8.56,0H5.17a2.66,2.66,0,0,0,.26.31A2.13,2.13,0,0,0,8.32.38,3,3,0,0,0,8.56,0Z"/><path class="cls-6" d="M36,34.42c-.12.23-.24.44-.37.65a6.9,6.9,0,0,1-1.49,1.64,7.89,7.89,0,0,1-.82.56,6.36,6.36,0,0,1-3.36.95,5.27,5.27,0,0,1-1.8-.34,5.71,5.71,0,0,1-1.73-1A3.47,3.47,0,0,1,26,36.5l-.23-.23a5.89,5.89,0,0,1-.58-.72A10.33,10.33,0,0,1,24,33a4.53,4.53,0,0,1,0-2.78A1.78,1.78,0,0,1,25.46,29a7.06,7.06,0,0,1,2,0l.49.05a9.5,9.5,0,0,0,1.81-.06,3.69,3.69,0,0,0,.7-.1,11.81,11.81,0,0,0,2.33-.9l1-.46a3.42,3.42,0,0,1,1.35-.29h.13a3.05,3.05,0,0,1,.6.17,1.77,1.77,0,0,1,.87.8A2.87,2.87,0,0,1,37,29.46,10.53,10.53,0,0,1,36,34.42ZM33.8,27.67l-1,.46a11.42,11.42,0,0,1-2.35.91,3.67,3.67,0,0,1-.71.1,12,12,0,0,1-1.28.08l-.54,0-.49-.05a6.52,6.52,0,0,0-2,0,1.68,1.68,0,0,0-1.38,1.15c-.68,1.89.31,3.9,1.11,5.24a5.76,5.76,0,0,0,.56.72,5.64,5.64,0,0,0,.65.57,5.69,5.69,0,0,0,6.82.42,7.4,7.4,0,0,0,.81-.57A6.51,6.51,0,0,0,35.51,35a5,5,0,0,0,.37-.63A10.3,10.3,0,0,0,37,29.46a2.42,2.42,0,0,0-.65-1.6,1.72,1.72,0,0,0-.48-.31,2.86,2.86,0,0,0-.58-.16A3.36,3.36,0,0,0,33.8,27.67Z"/><path class="cls-6" d="M26.36,16.05A6.72,6.72,0,0,1,25,17.52a5.35,5.35,0,0,1-1.71.88,5,5,0,0,1-1.39.2,5.3,5.3,0,0,1-2.21-.5A9.09,9.09,0,0,1,16,14.73h0a12.14,12.14,0,0,1-1.28-4.84,11.54,11.54,0,0,1,.65-4.65,7.26,7.26,0,0,1,1.23-2.18,4.42,4.42,0,0,1,1.81-1.31,3.5,3.5,0,0,1,.82-.2,2.47,2.47,0,0,1,.54-.05,3,3,0,0,1,2.17,1,10.41,10.41,0,0,1,1.77,2.65,3.28,3.28,0,0,0,1.19,1.18,8.5,8.5,0,0,1,.71.55l.15.15A1.53,1.53,0,0,1,26,7.2c.15.17.3.36.46.58s.26.37.4.56l0,0a4.53,4.53,0,0,1,.34.55,4.43,4.43,0,0,1,.51,1.84,9.42,9.42,0,0,1,0,1.06A8.11,8.11,0,0,1,26.36,16.05Zm1.27-5.28A4.44,4.44,0,0,0,27.13,9a4.93,4.93,0,0,0-.34-.54l0,0-.4-.56c-.16-.22-.31-.41-.45-.58l-.18-.18-.15-.14a7.13,7.13,0,0,0-.71-.55,3.29,3.29,0,0,1-1.2-1.2,10.35,10.35,0,0,0-1.76-2.63,3,3,0,0,0-2.12-1,2.44,2.44,0,0,0-.53.05,3.72,3.72,0,0,0-.8.19,5.53,5.53,0,0,0-3,3.45,12.2,12.2,0,0,0,.63,9.43c1.66,2.49,3.7,3.84,5.76,3.84a4.72,4.72,0,0,0,1.38-.21c2.47-.73,4.28-3.41,4.4-6.51A9,9,0,0,0,27.63,10.77Z"/><path class="cls-6" d="M18,26.06a3.16,3.16,0,0,1,0,2.25A7.16,7.16,0,0,1,16.23,31a16,16,0,0,0-1.58,2,11.89,11.89,0,0,1-2.51,2.81,4.9,4.9,0,0,1-1.72.77,5.51,5.51,0,0,1-2.25,0,6.41,6.41,0,0,1-2.67-1.1,4.31,4.31,0,0,1-1.09-1.2,4.51,4.51,0,0,1-.3-.58A12.24,12.24,0,0,1,3.48,29h0c0-.24,0-.48,0-.72a14.33,14.33,0,0,1,.31-3.43A5.64,5.64,0,0,1,5.18,22a3.47,3.47,0,0,1,2.53-1h.36a4.67,4.67,0,0,1,2.39,1.23,4,4,0,0,0,2.41,1.17,7,7,0,0,1,3.24.67A3.7,3.7,0,0,1,18,26.06Zm-5.14-2.51a4.14,4.14,0,0,1-2.46-1.19,4.56,4.56,0,0,0-2.34-1.21,3.52,3.52,0,0,0-2.84,1c-1.46,1.44-1.72,4.16-1.68,6.19,0,.24,0,.48,0,.72h0a12.28,12.28,0,0,0,.62,4.6,4.92,4.92,0,0,0,.29.56,5.21,5.21,0,0,0,3.71,2.27,5.87,5.87,0,0,0,1.21.13c2.56,0,3.9-1.86,5.2-3.66a16.19,16.19,0,0,1,1.59-2c1.7-1.71,2.33-3.43,1.77-4.85a3.17,3.17,0,0,0-.23-.45,4,4,0,0,0-1.64-1.43A7,7,0,0,0,12.87,23.55Z"/><path class="cls-6" d="M7.81,16.76a3,3,0,0,1-.83.81,2.13,2.13,0,0,1-1.09.32h0c-1.18,0-1.7-1.37-2.08-2.38l0-.11a3.15,3.15,0,0,1-.19-.93,3.1,3.1,0,0,1,.15-1h0a2.58,2.58,0,0,1,1.52-1.27,2.77,2.77,0,0,1,.9-.14,2.64,2.64,0,0,1,1.08.22,2.45,2.45,0,0,1,.67.47,2.35,2.35,0,0,1,.71,1.79A4.27,4.27,0,0,1,7.81,16.76Zm-1.92,1a2.79,2.79,0,0,0,2.37-2.07A4.46,4.46,0,0,0,8.5,14.5a2.35,2.35,0,0,0-.69-1.74,2.4,2.4,0,0,0-.65-.44,2.46,2.46,0,0,0-1-.23,2.62,2.62,0,0,0-2.35,1.38,2.88,2.88,0,0,0-.14,1,2.94,2.94,0,0,0,.18.9l.05.11c.37,1,.88,2.33,2,2.33Z"/><path class="cls-6" d="M36.59,6.19a3.37,3.37,0,0,1-.31.46l-.06.07A3.68,3.68,0,0,1,34.76,7.9a1.81,1.81,0,0,1-.61.1,1.74,1.74,0,0,1-1.47-.78,3.6,3.6,0,0,1-.36-3.44,2.56,2.56,0,0,1,2.35-1.49h.19A2.4,2.4,0,0,1,37,4.85,3.25,3.25,0,0,1,36.59,6.19ZM32.38,3.81a3.55,3.55,0,0,0,.37,3.37,1.66,1.66,0,0,0,1.4.75,1.91,1.91,0,0,0,.58-.1,3.64,3.64,0,0,0,1.44-1.16l0-.07a3.28,3.28,0,0,0,.31-.45,2.66,2.66,0,0,0,0-2.67,2.24,2.24,0,0,0-1.73-1.1A2.51,2.51,0,0,0,32.38,3.81Z"/></pattern><pattern id="blob-pattern-5" data-name="blob-pattern" width="40.09" height="41.53" patternTransform="translate(-98.04 -53.05) scale(1.33)" patternUnits="userSpaceOnUse" viewBox="0 0 40.09 41.53"><rect class="cls-1" width="40.09" height="41.53"/><path class="cls-2" d="M28.08,31.6c0-8-15.28-.83-17.52,2.81-1.48,2.22-.78,4.81.76,7.12H23.43C23.86,36.94,27.42,35.74,28.08,31.6Z"/><path class="cls-3" d="M6.33,15.52a3.49,3.49,0,0,0,.9-1.22A19.52,19.52,0,0,1,8.81,11a3.48,3.48,0,0,1,.46-.57,10.64,10.64,0,0,1,1.3-1.3c1.1-.86,2.81-1.87,2.18-3.51S10.16,3,8.5,2.46a5.31,5.31,0,0,0-.89-.13,4.78,4.78,0,0,0-.85,0A6,6,0,0,0,1.4,6.81a8.24,8.24,0,0,0-.24,1,7,7,0,0,0,0,2.24,6.26,6.26,0,0,0,.14.73,10.19,10.19,0,0,0,2.4,4.41,2,2,0,0,0,2.11.64A2.44,2.44,0,0,0,6.33,15.52Z"/><path class="cls-2" d="M23.51,3.32A19,19,0,0,1,23.43,0H11.32a20.38,20.38,0,0,0,6.07,6.94C19.7,8.64,23.55,7.29,23.51,3.32Z"/><path class="cls-4" d="M0,17V41.53H2.26A66.3,66.3,0,0,0,8,29.63l.28-.76a28.12,28.12,0,0,0,1.25-6.45,2.83,2.83,0,0,0-1.73-3,3.36,3.36,0,0,0-.77-.2c-.52-.09-1.07-.1-1.58-.21l-.71-.13a5.39,5.39,0,0,1-2-.83c-.22-.12-.44-.22-.67-.33A12.79,12.79,0,0,0,0,17Z"/><path class="cls-4" d="M40.09,41.53V17a8.51,8.51,0,0,0-2.85-.21c-5.92.87-6.19,8.09-7.11,12.91-.75,3.27-1.92,8.76-1.77,10.08a4.08,4.08,0,0,0,.57,1.71Z"/><path class="cls-4" d="M2.26,0H0V2.83A15.81,15.81,0,0,0,2.26,0Z"/><path class="cls-4" d="M40.09,2.83V0H28.93c1.86,3.11,6.4,5.11,9.59,3.89A5.06,5.06,0,0,0,40.09,2.83Z"/><path class="cls-5" d="M21.81,13.52c-4.74-7.14-11.36-3.28-11.62,2.89,0,.35,0,.7,0,1.05a4.43,4.43,0,0,0,.51,1.83,3.77,3.77,0,0,0,.34.54c.14.21.27.4.42.6s.29.38.45.57.22.21.33.33c.68.62,1.48.9,1.9,1.74,1,1.87,2.28,4,4.45,3.58a3.2,3.2,0,0,0,.81-.2C23,25.1,24.3,18.35,21.81,13.52Z"/><path class="cls-6" d="M33.57,14.6l-.07,0h0C33.66,14.53,33.63,14.56,33.57,14.6Z"/><path class="cls-6" d="M35.91,10.1l0,0s0,0-.06-.09Z"/><path class="cls-6" d="M28.27,17.31l-.07,0h0C28.29,17.28,28.3,17.29,28.27,17.31Z"/><path class="cls-6" d="M35,13.75Z"/><polygon class="cls-6" points="27.61 17.39 27.61 17.39 27.6 17.38 27.6 17.38 27.61 17.39"/><path class="cls-6" d="M27.58,17.37l-.07,0h0l.08.05Z"/><path class="cls-6" d="M27.74,17.41h0l-.08,0Z"/><path class="cls-7" d="M37.28,14.07c-1.09,1.55-3.58,1.34-4.52,2.93-2.29,3.89-6.67,4.88-7.87-1.05-.63-3.14-3.4-6.46-.22-10,3.41-3.8,6.31-1.51,9.18.28S39.57,10.84,37.28,14.07Z"/><path class="cls-6" d="M27.6,17.38h0l.07,0Z"/><path class="cls-3" d="M27.22,21.45a2.71,2.71,0,0,0-1,.21,2.91,2.91,0,0,0-.76.49c-.8.74-2,1.74-1.52,2.92.57,1.52,2.54,1.88,3.95,1.42a2.29,2.29,0,0,0,1.36-1.28,2.52,2.52,0,0,0,.19-.81A2.84,2.84,0,0,0,27.22,21.45Z"/><path class="cls-7" d="M10.26,26.91a2.72,2.72,0,0,0,0,2.72A2.34,2.34,0,0,0,12,30.75a2.55,2.55,0,0,0,2.51-1.46,3.57,3.57,0,0,0-.37-3.41,1.72,1.72,0,0,0-2-.66,3.73,3.73,0,0,0-1.51,1.24A3.28,3.28,0,0,0,10.26,26.91Z"/><path class="cls-5" d="M8.78,40.45c0-.88,0-2.12-.95-2.44-1.2-.41-2.41.66-2.85,1.79a2,2,0,0,0,.07,1.52l.12.21H8.56a2.37,2.37,0,0,0,.13-.34A2.31,2.31,0,0,0,8.78,40.45Z"/><path class="cls-5" d="M8.56,0H5.17a2.66,2.66,0,0,0,.26.31A2.13,2.13,0,0,0,8.32.38,3,3,0,0,0,8.56,0Z"/><path class="cls-6" d="M36,34.42c-.12.23-.24.44-.37.65a6.9,6.9,0,0,1-1.49,1.64,7.89,7.89,0,0,1-.82.56,6.36,6.36,0,0,1-3.36.95,5.27,5.27,0,0,1-1.8-.34,5.71,5.71,0,0,1-1.73-1A3.47,3.47,0,0,1,26,36.5l-.23-.23a5.89,5.89,0,0,1-.58-.72A10.33,10.33,0,0,1,24,33a4.53,4.53,0,0,1,0-2.78A1.78,1.78,0,0,1,25.46,29a7.06,7.06,0,0,1,2,0l.49.05a9.5,9.5,0,0,0,1.81-.06,3.69,3.69,0,0,0,.7-.1,11.81,11.81,0,0,0,2.33-.9l1-.46a3.42,3.42,0,0,1,1.35-.29h.13a3.05,3.05,0,0,1,.6.17,1.77,1.77,0,0,1,.87.8A2.87,2.87,0,0,1,37,29.46,10.53,10.53,0,0,1,36,34.42ZM33.8,27.67l-1,.46a11.42,11.42,0,0,1-2.35.91,3.67,3.67,0,0,1-.71.1,12,12,0,0,1-1.28.08l-.54,0-.49-.05a6.52,6.52,0,0,0-2,0,1.68,1.68,0,0,0-1.38,1.15c-.68,1.89.31,3.9,1.11,5.24a5.76,5.76,0,0,0,.56.72,5.64,5.64,0,0,0,.65.57,5.69,5.69,0,0,0,6.82.42,7.4,7.4,0,0,0,.81-.57A6.51,6.51,0,0,0,35.51,35a5,5,0,0,0,.37-.63A10.3,10.3,0,0,0,37,29.46a2.42,2.42,0,0,0-.65-1.6,1.72,1.72,0,0,0-.48-.31,2.86,2.86,0,0,0-.58-.16A3.36,3.36,0,0,0,33.8,27.67Z"/><path class="cls-6" d="M26.36,16.05A6.72,6.72,0,0,1,25,17.52a5.35,5.35,0,0,1-1.71.88,5,5,0,0,1-1.39.2,5.3,5.3,0,0,1-2.21-.5A9.09,9.09,0,0,1,16,14.73h0a12.14,12.14,0,0,1-1.28-4.84,11.54,11.54,0,0,1,.65-4.65,7.26,7.26,0,0,1,1.23-2.18,4.42,4.42,0,0,1,1.81-1.31,3.5,3.5,0,0,1,.82-.2,2.47,2.47,0,0,1,.54-.05,3,3,0,0,1,2.17,1,10.41,10.41,0,0,1,1.77,2.65,3.28,3.28,0,0,0,1.19,1.18,8.5,8.5,0,0,1,.71.55l.15.15A1.53,1.53,0,0,1,26,7.2c.15.17.3.36.46.58s.26.37.4.56l0,0a4.53,4.53,0,0,1,.34.55,4.43,4.43,0,0,1,.51,1.84,9.42,9.42,0,0,1,0,1.06A8.11,8.11,0,0,1,26.36,16.05Zm1.27-5.28A4.44,4.44,0,0,0,27.13,9a4.93,4.93,0,0,0-.34-.54l0,0-.4-.56c-.16-.22-.31-.41-.45-.58l-.18-.18-.15-.14a7.13,7.13,0,0,0-.71-.55,3.29,3.29,0,0,1-1.2-1.2,10.35,10.35,0,0,0-1.76-2.63,3,3,0,0,0-2.12-1,2.44,2.44,0,0,0-.53.05,3.72,3.72,0,0,0-.8.19,5.53,5.53,0,0,0-3,3.45,12.2,12.2,0,0,0,.63,9.43c1.66,2.49,3.7,3.84,5.76,3.84a4.72,4.72,0,0,0,1.38-.21c2.47-.73,4.28-3.41,4.4-6.51A9,9,0,0,0,27.63,10.77Z"/><path class="cls-6" d="M18,26.06a3.16,3.16,0,0,1,0,2.25A7.16,7.16,0,0,1,16.23,31a16,16,0,0,0-1.58,2,11.89,11.89,0,0,1-2.51,2.81,4.9,4.9,0,0,1-1.72.77,5.51,5.51,0,0,1-2.25,0,6.41,6.41,0,0,1-2.67-1.1,4.31,4.31,0,0,1-1.09-1.2,4.51,4.51,0,0,1-.3-.58A12.24,12.24,0,0,1,3.48,29h0c0-.24,0-.48,0-.72a14.33,14.33,0,0,1,.31-3.43A5.64,5.64,0,0,1,5.18,22a3.47,3.47,0,0,1,2.53-1h.36a4.67,4.67,0,0,1,2.39,1.23,4,4,0,0,0,2.41,1.17,7,7,0,0,1,3.24.67A3.7,3.7,0,0,1,18,26.06Zm-5.14-2.51a4.14,4.14,0,0,1-2.46-1.19,4.56,4.56,0,0,0-2.34-1.21,3.52,3.52,0,0,0-2.84,1c-1.46,1.44-1.72,4.16-1.68,6.19,0,.24,0,.48,0,.72h0a12.28,12.28,0,0,0,.62,4.6,4.92,4.92,0,0,0,.29.56,5.21,5.21,0,0,0,3.71,2.27,5.87,5.87,0,0,0,1.21.13c2.56,0,3.9-1.86,5.2-3.66a16.19,16.19,0,0,1,1.59-2c1.7-1.71,2.33-3.43,1.77-4.85a3.17,3.17,0,0,0-.23-.45,4,4,0,0,0-1.64-1.43A7,7,0,0,0,12.87,23.55Z"/><path class="cls-6" d="M7.81,16.76a3,3,0,0,1-.83.81,2.13,2.13,0,0,1-1.09.32h0c-1.18,0-1.7-1.37-2.08-2.38l0-.11a3.15,3.15,0,0,1-.19-.93,3.1,3.1,0,0,1,.15-1h0a2.58,2.58,0,0,1,1.52-1.27,2.77,2.77,0,0,1,.9-.14,2.64,2.64,0,0,1,1.08.22,2.45,2.45,0,0,1,.67.47,2.35,2.35,0,0,1,.71,1.79A4.27,4.27,0,0,1,7.81,16.76Zm-1.92,1a2.79,2.79,0,0,0,2.37-2.07A4.46,4.46,0,0,0,8.5,14.5a2.35,2.35,0,0,0-.69-1.74,2.4,2.4,0,0,0-.65-.44,2.46,2.46,0,0,0-1-.23,2.62,2.62,0,0,0-2.35,1.38,2.88,2.88,0,0,0-.14,1,2.94,2.94,0,0,0,.18.9l.05.11c.37,1,.88,2.33,2,2.33Z"/><path class="cls-6" d="M36.59,6.19a3.37,3.37,0,0,1-.31.46l-.06.07A3.68,3.68,0,0,1,34.76,7.9a1.81,1.81,0,0,1-.61.1,1.74,1.74,0,0,1-1.47-.78,3.6,3.6,0,0,1-.36-3.44,2.56,2.56,0,0,1,2.35-1.49h.19A2.4,2.4,0,0,1,37,4.85,3.25,3.25,0,0,1,36.59,6.19ZM32.38,3.81a3.55,3.55,0,0,0,.37,3.37,1.66,1.66,0,0,0,1.4.75,1.91,1.91,0,0,0,.58-.1,3.64,3.64,0,0,0,1.44-1.16l0-.07a3.28,3.28,0,0,0,.31-.45,2.66,2.66,0,0,0,0-2.67,2.24,2.24,0,0,0-1.73-1.1A2.51,2.51,0,0,0,32.38,3.81Z"/></pattern></defs><path class="cls-8" d="M119.3,178.47,89.21,193.85l9.85,24.9s2,24.43,4.34,32.87,3.84,43.76,3.84,43.76h75.12l14.53-107.3-29.28-12.93L157,196.39l-11.29-7-9.28,7Z" transform="translate(-72.77 -25)"/><path class="cls-8" d="M196.89,188.08s5.53,6,5.84,8.31S211,208.08,211,208.08s10.66-18.66,10.66-26.66c0,0,7.34-.67,18,3.33,0,0,1.82,1.1-4.67,16.66-4.89,11.76-17.45,27.59-23.77,35.16a5.15,5.15,0,0,1-7.68.24L192,224.57Z" transform="translate(-72.77 -25)"/><path class="cls-9" d="M239,185.44s2.43-10.47-3.83-12.77-8.89,1-8.89,1-2.46,2.85-3.13,8.54Z" transform="translate(-72.77 -25)"/><path class="cls-10" d="M119,178.45l-30.1,15.39,9.85,24.89s2,24.43,4.34,32.88,3.85,43.76,3.85,43.76H182l14.53-107.3-29.27-12.94-10.6,21.25-11.3-7-9.28,7Z" transform="translate(-72.77 -25)"/><path class="cls-11" d="M107,294.37l10.41.41c13.71.55,27.44,1.1,41.14,0,7.93-.66,15.87-1.88,23.8-1.13a1,1,0,0,1,.93.54,2.36,2.36,0,0,1,.09,1.1l-.27,4L188,451s46,7,14.69,14.35c-17.65,4.15-29.32-4-29.32-4S157.75,358.15,147,330.46a1.24,1.24,0,0,0-2.38.21c-3.81,21.44-17.47,122.66-19.29,129.87C124,466,101.85,472.29,89,467c-17-7,22-16,22-16Z" transform="translate(-72.77 -25)"/><path class="cls-8" d="M89.7,194.53s-6.15,4.9-7.48,10.23c-.9,3.61-5.47,25-8.33,38.36a40.31,40.31,0,0,0,1.3,21.47c3.06,8.94,7.32,21.57,9.7,29.49,4,13.33,4,16,6.66,16s17.33-2.67,17.33-2.67,0-10.66-2.66-16-10.67-38.66-10.67-38.66l13.33-36.39Z" transform="translate(-72.77 -25)"/><path class="cls-10" d="M196.54,188.07s5.53,6,5.84,8.31,8.31,11.69,8.31,11.69,10.67-18.67,10.67-26.67c0,0,7.33-.66,18,3.34,0,0,1.82,1.09-4.66,16.66-4.9,11.76-17.46,27.59-23.77,35.15a5.13,5.13,0,0,1-7.68.24L191.6,224.55Z" transform="translate(-72.77 -25)"/><path class="cls-12" d="M156,162.74l.63,8-12,17.33-14-15.69v-8.31S140.78,151.93,156,162.74Z" transform="translate(-72.77 -25)"/><path class="cls-9" d="M98.71,141.41s14.67,26,33.33,26c0,0,8.23,2.54,20.11,0s37.21-22,37.21-22L186.7,86.13,165.37,32.82l-48-1.27-24,58.39Z" transform="translate(-72.77 -25)"/><path d="M164,98.75s8-5.33,5.34-4A13.35,13.35,0,0,1,164,96.08s-4-6.66-8,0a31.61,31.61,0,0,0-.2,11.15,2.62,2.62,0,0,0,1.26,1.82,5.33,5.33,0,0,0,6.93-1A37.24,37.24,0,0,0,164,98.75Z" transform="translate(-72.77 -25)"/><path d="M122.82,99.17s-8-5.34-5.34-4a13.35,13.35,0,0,0,5.34,1.33s4-6.66,8,0a31.59,31.59,0,0,1,.2,11.15,2.64,2.64,0,0,1-1.26,1.82,5.33,5.33,0,0,1-6.93-1A37.24,37.24,0,0,1,122.82,99.17Z" transform="translate(-72.77 -25)"/><path class="cls-13" d="M151.24,89.07c4-.78,8.07-2.23,12.21-2,3.12.18,6.64,1.37,8.25,4.24.11.2.42.7.68.45s-.19-1-.3-1.22a10.83,10.83,0,0,0-8.38-5.22c-4.51-.54-8.94,1.08-13.31,1.93-.37.07.27,1.92.85,1.81Z" transform="translate(-72.77 -25)"/><path class="cls-13" d="M134.85,86.18c-4.4-.65-8.89-2.07-13.37-1.33a10.7,10.7,0,0,0-8.12,5.6c-.37.74-.15,2,.47.72,1.47-2.91,5-4.25,8.08-4.56,4.13-.42,8.24.86,12.29,1.47.56.08,1.07-1.83.65-1.9Z" transform="translate(-72.77 -25)"/><path class="cls-14" d="M142.75,108.45a109.56,109.56,0,0,1-6.41,15.35c-.44.88-.67,1.79.15,2.53a7.83,7.83,0,0,0,3.07,1.29,16.46,16.46,0,0,0,7.42.21c.94-.18.54-1.63-.4-1.44a14.8,14.8,0,0,1-6.62-.22,13,13,0,0,1-1.38-.44c-.68-.25-1.22-.32-.94-1.17a27.22,27.22,0,0,1,1.54-3.11,107.67,107.67,0,0,0,5-12.6c.3-.92-1.15-1.31-1.45-.4Z" transform="translate(-72.77 -25)"/><path class="cls-15" d="M135.79,148.36c4.41,1.57,9.24,2.41,13.85,1.22a17,17,0,0,0,9.7-6.89c.83-1.19-1.12-2.32-1.94-1.14a14.68,14.68,0,0,1-8.68,5.94c-4.13,1-8.41.1-12.33-1.3-1.36-.49-1.95,1.68-.6,2.17Z" transform="translate(-72.77 -25)"/><g class="cls-16"><path class="cls-15" d="M120,120.84l-7.42-1a5.5,5.5,0,0,0-3.08.3,3.42,3.42,0,0,0-1.84,1.82,2.5,2.5,0,0,0,.41,2.34,3.93,3.93,0,0,0,2.39,1.4l7.41,1a5.53,5.53,0,0,0,3.09-.31,3.37,3.37,0,0,0,1.83-1.82,2.47,2.47,0,0,0-.4-2.34,4,4,0,0,0-2.39-1.4Z" transform="translate(-72.77 -25)"/></g><g class="cls-16"><path class="cls-15" d="M166.81,126.48l7.41-1a4,4,0,0,0,2.39-1.39,2.52,2.52,0,0,0,.41-2.35,3.37,3.37,0,0,0-1.84-1.81,5.78,5.78,0,0,0-3.08-.31l-7.42,1a4.07,4.07,0,0,0-2.39,1.39,2.52,2.52,0,0,0-.4,2.35,3.33,3.33,0,0,0,1.84,1.81,5.76,5.76,0,0,0,3.08.31Z" transform="translate(-72.77 -25)"/></g><polygon class="cls-17" points="46.19 153.45 57.94 147.38 71.91 163.07 83.9 145.74 94.5 150.13 83.9 171.38 72.61 164.4 63.33 171.38 46.19 153.45"/><line class="cls-18" x1="72.6" y1="164.4" x2="72.6" y2="270.37"/><path class="cls-9" d="M90.71,309.38s1.34,10.67,8,10.67,8-4,8-4,1.33-3.52,0-9.1Z" transform="translate(-72.77 -25)"/><path class="cls-19" d="M203.21,84.33C194.7,50.06,178.7,24.11,142.7,25h0c-36-.91-52,25-60.5,59.3s-.82,91.37,0,97.58,15.18,46.15,15.18,38.54V207.69s10.66,15.26,8,7.65A34,34,0,0,1,104,200.07s10.67,15.61,9.34,8a35.13,35.13,0,0,1,0-13.13s9.33,24.18,8,14a126.39,126.39,0,0,1-1.34-14s4,11.41,4,3.79c0-3.73-7.9-16.09-2.66-21.33,1.33-1.33,8.76-3.11,9.33-5.33.89-3.51,0-5.33,0-5.33a67.62,67.62,0,0,1-20-10.67c-16-16-10.66-59.06-9.33-62.87S116,75.43,121.38,64,142.7,48.25,142.7,48.25h0S158.7,52.6,164,64,182.7,89.4,184,93.21c1.25,3.57,8,50.87-12,64.2-2.36,1.57-13.21,7-17.33,9.33a11.69,11.69,0,0,0,1.46,4.33c1.13,2.32,12.13,2.81,13.21,6.33,2.41,7.9-5.34,20-5.34,23.92,0,7.61,4-3.92,4-3.92s1.34.14,0,10.29,5.34-10.2,5.34-10.2a32.93,32.93,0,0,1,0,12.75c-1.34,7.61,6.66-6.17,6.66-6.17s2.67,3.05,0,10.66,5.33-7,5.33-7a22.34,22.34,0,0,1,4,12.75c0,7.61,13-32.33,13.85-38.54S211.71,118.59,203.21,84.33Z" transform="translate(-72.77 -25)"/><path class="cls-20" d="M89.46,194.52s-6.15,4.9-7.48,10.23c-.9,3.61-5.47,24.95-8.33,38.35A40.31,40.31,0,0,0,75,264.57c3.06,8.95,7.32,21.57,9.7,29.5,4,13.33,4,16,6.66,16s17.33-2.66,17.33-2.66,0-10.67-2.66-16-10.67-38.66-10.67-38.66l13.33-36.39Z" transform="translate(-72.77 -25)"/></svg>