<svg id="Layer_1" data-name="Layer 1" xmlns="http://www.w3.org/2000/svg" viewBox="0 0 1471.46 1129.22"><defs><style>.cls-1,.cls-2{fill:#5fb090;}.cls-2{opacity:0.81;}.cls-3,.cls-6{fill:#66bd76;}.cls-3{opacity:0.79;}.cls-4{fill:#456580;opacity:0.71;}.cls-5{fill:#569b9e;opacity:0.86;}.cls-6{opacity:0.76;}</style></defs><polygon class="cls-1" points="817.87 281.39 490.84 281.39 327.33 564.61 490.84 847.82 817.87 847.82 981.38 564.61 817.87 281.39"/><polygon class="cls-2" points="1307.95 562.79 980.92 562.79 817.41 846 980.92 1129.22 1307.95 1129.22 1471.46 846 1307.95 562.79"/><polygon class="cls-3" points="655.16 0 328.14 0 164.62 283.21 328.14 566.43 655.16 566.43 818.68 283.21 655.16 0"/><polygon class="cls-4" points="490.54 281.39 163.51 281.39 0 564.61 163.51 847.82 490.54 847.82 654.05 564.61 490.54 281.39"/><polygon class="cls-5" points="1145.59 281.39 818.56 281.39 655.05 564.61 818.56 847.82 1145.59 847.82 1309.1 564.61 1145.59 281.39"/><polygon class="cls-6" points="1144.69 846 981.18 562.79 654.15 562.79 490.64 846 654.15 1129.22 981.18 1129.22 1144.69 846"/></svg>