<svg id="Layer_1" data-name="Layer 1" xmlns="http://www.w3.org/2000/svg" viewBox="0 0 3117.26 568.24"><defs><style>.cls-1,.cls-5{fill:#5fb090;}.cls-2,.cls-5,.cls-6,.cls-7,.cls-8,.cls-9{isolation:isolate;}.cls-3,.cls-7{fill:#456580;}.cls-4{fill:#4d4d4d;}.cls-5{opacity:0.92;}.cls-6,.cls-9{fill:#66bd76;}.cls-6{opacity:0.87;}.cls-7{opacity:0.71;}.cls-8{fill:#569b9e;opacity:0.93;}.cls-9{opacity:0.69;}</style></defs><polygon class="cls-1" points="411.56 141.6 247 141.6 164.72 284.12 247 426.64 411.56 426.64 493.85 284.12 411.56 141.6"/><g class="cls-2"><path class="cls-3" d="M940.08,235.87h91.59v17.54H900.23v-185h39.85Z" transform="translate(-41.1 -0.92)"/><path class="cls-3" d="M1084,109.19h99.62q23.49,0,23.49,23.49v97.24q0,23.49-23.49,23.49H1084q-23.49,0-23.49-23.49V132.68Q1060.51,109.19,1084,109.19Zm85,117.46V136q0-5.64-1.64-7.43t-7.58-1.79h-52c-3.77,0-6.24.6-7.43,1.79s-1.79,3.67-1.79,7.43v90.7c0,4,.6,6.49,1.79,7.58s3.66,1.64,7.43,1.64h52q5.94,0,7.58-1.64C1168.5,233.14,1169.05,230.62,1169.05,226.65Z" transform="translate(-41.1 -0.92)"/><path class="cls-3" d="M1332.59,126.73H1299v98.73c0,4,.55,6.49,1.64,7.58s3.61,1.64,7.58,1.64h24.09v18.73h-48.17q-23.51,0-23.5-23.49V126.73h-23.19V109.19h23.19V80.64H1299v28.55h33.6Z" transform="translate(-41.1 -0.92)"/><path class="cls-3" d="M1446.78,126.73h-33.61v98.73c0,4,.55,6.49,1.64,7.58s3.62,1.64,7.58,1.64h24.09v18.73h-48.17q-23.5,0-23.49-23.49V126.73h-23.2V109.19h23.2V80.64h38.35v28.55h33.61Z" transform="translate(-41.1 -0.92)"/><path class="cls-3" d="M1501.78,109.19h101.7q23.49,0,23.49,23.49v55.61H1516.65v38.36c0,4,.55,6.49,1.64,7.58s3.61,1.64,7.58,1.64h53.82q5.65,0,7.44-1.64c1.19-1.09,1.78-3.61,1.78-7.58V210.29h37.47v19.63q0,23.49-23.49,23.49H1501.78q-23.49,0-23.49-23.49V132.68Q1478.29,109.19,1501.78,109.19Zm14.87,61.55h72.86V136q0-5.64-1.79-7.43t-7.43-1.79h-54.42c-4,0-6.49.6-7.58,1.79s-1.64,3.67-1.64,7.43Z" transform="translate(-41.1 -0.92)"/><path class="cls-3" d="M1753.64,68.45h39v185h-39Zm125.19,0H1924l-81.18,90.4L1927,253.41h-45.79l-82.67-94.56Z" transform="translate(-41.1 -0.92)"/><path class="cls-3" d="M1978.15,109.19h99.61q23.49,0,23.5,23.49v97.24q0,23.49-23.5,23.49h-99.61q-23.49,0-23.49-23.49V132.68Q1954.66,109.19,1978.15,109.19Zm85,117.46V136c0-3.76-.55-6.24-1.63-7.43s-3.62-1.79-7.59-1.79h-52q-5.65,0-7.44,1.79t-1.78,7.43v90.7c0,4,.59,6.49,1.78,7.58s3.67,1.64,7.44,1.64h52c4,0,6.49-.55,7.59-1.64S2063.19,230.62,2063.19,226.65Z" transform="translate(-41.1 -0.92)"/><path class="cls-3" d="M2212.17,108.89H2238v19.33h-32.71q-20.52,0-20.52,22.3V253.41h-38.36V109.19h38.36V127Q2190.45,108.9,2212.17,108.89Z" transform="translate(-41.1 -0.92)"/><path class="cls-3" d="M2360,227V199.59q0-5.66-1.79-7.44t-7.43-1.78h-66.91q-23.49,0-23.49-23.49v-34.2q0-23.49,23.49-23.49h89.51q23.47,0,23.49,23.49v18.14h-37.47V135.66c0-4-.59-6.49-1.78-7.59s-3.67-1.63-7.44-1.63h-42.22c-3.77,0-6.25.55-7.44,1.63s-1.78,3.62-1.78,7.59v28c0,4,.59,6.49,1.78,7.58s3.67,1.64,7.44,1.64h66.61q23.47,0,23.49,23.49v33.6q0,23.49-23.49,23.49h-89.81q-23.49,0-23.49-23.49V211.78h37.47V227q0,5.64,1.78,7.43t7.44,1.78h42.82q5.64,0,7.43-1.78T2360,227Z" transform="translate(-41.1 -0.92)"/><path class="cls-3" d="M2495.55,109.19h67.5q23.49,0,23.49,23.49V253.41h-38.66V136q0-5.64-1.78-7.43t-7.43-1.79H2489.3q-10.41,0-10.4,9.82v8.92h-.3V253.41h-38.36V54.48h38.36V119.3Q2482.17,109.19,2495.55,109.19Z" transform="translate(-41.1 -0.92)"/><path class="cls-3" d="M2652.55,109.19h99.62q23.49,0,23.49,23.49v97.24q0,23.49-23.49,23.49h-99.62q-23.49,0-23.49-23.49V132.68Q2629.06,109.19,2652.55,109.19Zm85,117.46V136q0-5.64-1.64-7.43t-7.58-1.79h-52c-3.77,0-6.24.6-7.43,1.79s-1.79,3.67-1.79,7.43v90.7c0,4,.6,6.49,1.79,7.58s3.66,1.64,7.43,1.64h52q5.94,0,7.58-1.64C2737.05,233.14,2737.6,230.62,2737.6,226.65Z" transform="translate(-41.1 -0.92)"/><path class="cls-3" d="M2861.89,253.41h-38.36V54.48h38.36Z" transform="translate(-41.1 -0.92)"/><path class="cls-3" d="M3073.31,109.19h61.56q23.48,0,23.49,23.49V253.41H3120V136q0-5.64-1.64-7.43t-7.58-1.79h-44q-10.71,0-10.7,11V253.41h-38.66V136c0-3.76-.6-6.24-1.78-7.43s-3.67-1.79-7.44-1.79h-47.28q-10.41,0-10.41,9.82V253.41h-38.36V109.19h38.36v9.22q3.57-9.21,16.66-9.22h65.41q17.25,0,21.71,12.49Q3057.85,109.18,3073.31,109.19Z" transform="translate(-41.1 -0.92)"/></g><g class="cls-2"><path class="cls-4" d="M992.54,391.81H929.71v44.83h55.52v11.07H929.71v49.7H913V380.75h79.52Z" transform="translate(-41.1 -0.92)"/><path class="cls-4" d="M1045.81,406.44h19.5v11.44h-21.94q-12.19,0-12.19,14.07v65.46h-16.13v-91h16.13v11.44Q1034.17,406.45,1045.81,406.44Z" transform="translate(-41.1 -0.92)"/><path class="cls-4" d="M1097,406.44h56.64q14.82,0,14.82,14.82v61.33q0,14.82-14.82,14.82H1097q-14.82,0-14.82-14.82V421.26Q1082.19,406.44,1097,406.44Zm55.52,74.09V423.32c0-2.37-.35-3.94-1-4.69s-2.29-1.12-4.79-1.12H1104c-2.5,0-4.1.37-4.78,1.12s-1,2.32-1,4.69v57.21c0,2.5.35,4.1,1,4.78s2.28,1,4.78,1h42.76c2.5,0,4.1-.34,4.79-1S1152.53,483,1152.53,480.53Z" transform="translate(-41.1 -0.92)"/><path class="cls-4" d="M1227,406.44h44.26q14.82,0,14.82,14.82v76.15h-16.13V423.32c0-2.37-.35-3.94-1-4.69s-2.29-1.12-4.79-1.12h-41.07q-3.37,0-4.88,1.5t-1.5,5.06v6.19h-.19v67.15h-16.13v-91h16.13V413Q1218.55,406.44,1227,406.44Z" transform="translate(-41.1 -0.92)"/><path class="cls-4" d="M1362.22,417.51h-22.89v62.08c0,2.38.38,3.94,1.13,4.69s2.31,1.13,4.69,1.13H1362v12h-24q-14.82,0-14.81-14.82V417.51h-14.63V406.44h14.63V390.69h16.12v15.75h22.89Z" transform="translate(-41.1 -0.92)"/><path class="cls-4" d="M1399.54,406.44h58q14.8,0,14.81,14.82v35.07h-71.46v24.2c0,2.5.38,4.1,1.13,4.78s2.31,1,4.69,1H1450c2.5,0,4.09-.34,4.78-1s1-2.28,1-4.78v-8.82h15.94v10.88q0,14.82-14.82,14.82h-57.39q-14.82,0-14.82-14.82V421.26Q1384.72,406.44,1399.54,406.44Zm1.31,38.83h55.52V423.32c0-2.37-.37-3.94-1.12-4.69s-2.32-1.12-4.69-1.12h-43.89c-2.38,0-3.94.37-4.69,1.12s-1.13,2.32-1.13,4.69Z" transform="translate(-41.1 -0.92)"/><path class="cls-4" d="M1529,406.44h44.26q14.82,0,14.82,14.82v76.15h-16.13V423.32c0-2.37-.35-3.94-1-4.69s-2.29-1.12-4.79-1.12H1525q-3.37,0-4.88,1.5t-1.5,5.06v6.19h-.19v67.15h-16.13v-91h16.13V413Q1520.52,406.44,1529,406.44Z" transform="translate(-41.1 -0.92)"/><path class="cls-4" d="M1687.63,371.93h16.13V497.41h-16.13v-6q-2.45,6-10.31,6h-44.46q-14.8,0-14.81-14.82V421.26q0-14.82,14.81-14.82h44.46q7.88,0,10.31,6ZM1640,486.34h41.26c2.25,0,3.88-.49,4.88-1.5s1.5-2.68,1.5-5.06V424.07q0-3.56-1.5-5.06t-4.88-1.5H1640c-2.38,0-3.94.37-4.69,1.12s-1.12,2.32-1.12,4.69v57.21c0,2.5.37,4.1,1.12,4.78S1637.61,486.34,1640,486.34Z" transform="translate(-41.1 -0.92)"/><path class="cls-4" d="M1856.62,406.44h16.13v91h-16.13v-6c-1.63,4-5.06,6-10.32,6h-44.45q-14.82,0-14.81-14.82V406.44h16.13v74.09c0,2.5.37,4.1,1.12,4.78s2.31,1,4.69,1h41.26c2.25,0,3.88-.49,4.88-1.5s1.5-2.68,1.5-5.06Z" transform="translate(-41.1 -0.92)"/><path class="cls-4" d="M1974.22,371.93h16.13V497.41h-16.13v-6c-1.63,4-5.06,6-10.32,6h-44.45q-14.82,0-14.81-14.82V421.26q0-14.82,14.81-14.82h44.45c5.26,0,8.69,2,10.32,6Zm-47.64,114.41h41.26c2.25,0,3.88-.49,4.88-1.5s1.5-2.68,1.5-5.06V424.07q0-3.56-1.5-5.06t-4.88-1.5h-41.26c-2.38,0-3.94.37-4.69,1.12s-1.12,2.32-1.12,4.69v57.21c0,2.5.37,4.1,1.12,4.78S1924.2,486.34,1926.58,486.34Z" transform="translate(-41.1 -0.92)"/><path class="cls-4" d="M2012.86,406.44H2029l33.57,80.09,34.14-80.09h15.94l-38.08,91h-23.82Z" transform="translate(-41.1 -0.92)"/><path class="cls-4" d="M2136.65,387.88V371.75h17.06v16.13Zm16.5,109.53H2137v-91h16.13Z" transform="translate(-41.1 -0.92)"/><path class="cls-4" d="M2188.79,497.41V371.93h16.13V497.41Zm92.28-91-49.9,45,49.9,46h-21.39l-49.14-46,49.14-45Z" transform="translate(-41.1 -0.92)"/><path class="cls-4" d="M2319.89,497.41h-16.13V371.93h16.13Z" transform="translate(-41.1 -0.92)"/><path class="cls-4" d="M2368.47,406.44h58q14.82,0,14.82,14.82v35.07h-71.46v24.2c0,2.5.38,4.1,1.13,4.78s2.31,1,4.69,1h43.32c2.5,0,4.1-.34,4.79-1s1-2.28,1-4.78v-8.82h15.94v10.88q0,14.82-14.82,14.82h-57.39q-14.82,0-14.82-14.82V421.26Q2353.65,406.44,2368.47,406.44Zm1.31,38.83h55.52V423.32c0-2.37-.38-3.94-1.13-4.69s-2.31-1.12-4.69-1.12H2375.6c-2.38,0-3.94.37-4.69,1.12s-1.13,2.32-1.13,4.69Z" transform="translate(-41.1 -0.92)"/><path class="cls-4" d="M2502,406.44h19.5v11.44h-21.94q-12.2,0-12.19,14.07v65.46h-16.13v-91h16.13v11.44Q2490.38,406.45,2502,406.44Z" transform="translate(-41.1 -0.92)"/></g><polygon class="cls-5" points="658.18 283.2 493.61 283.2 411.33 425.72 493.61 568.24 658.18 568.24 740.46 425.72 658.18 283.2"/><polygon class="cls-6" points="329.69 0 165.12 0 82.84 142.52 165.12 285.04 329.69 285.04 411.97 142.52 329.69 0"/><polygon class="cls-7" points="246.85 141.6 82.28 141.6 0 284.12 82.28 426.64 246.85 426.64 329.13 284.12 246.85 141.6"/><polygon class="cls-8" points="576.48 141.6 411.91 141.6 329.63 284.12 411.91 426.64 576.48 426.64 658.76 284.12 576.48 141.6"/><polygon class="cls-9" points="576.03 425.72 493.74 283.2 329.18 283.2 246.9 425.72 329.18 568.24 493.74 568.24 576.03 425.72"/></svg>