<svg id="Layer_1" data-name="Layer 1" xmlns="http://www.w3.org/2000/svg" viewBox="0 0 473.91 483.16"><defs><style>.cls-1{fill:#fff;}.cls-2{fill:#fafafa;}.cls-3{isolation:isolate;}</style></defs><path d="M396,461.52a2.17,2.17,0,0,0-1.61-.25l-58.05,14.09a15,15,0,0,0-11,18l23.15,95.36a15,15,0,0,0,18,11L437,582.64a15,15,0,0,0,11-18L427.9,481.68a2.12,2.12,0,0,0-1-1.32Zm2.18,6.32,22.12,13.48-7.44,1.81A10.68,10.68,0,0,1,400,475.28Zm-60.84,11.67,56-13.59,2.52,10.37a14.94,14.94,0,0,0,18,11l10.37-2.51,14.09,58L347.13,565l-17.61-72.56A10.66,10.66,0,0,1,337.36,479.51Zm98.68,99L365.55,595.6a10.67,10.67,0,0,1-12.88-7.85l-4.53-18.65L439.35,547l4.53,18.66A10.66,10.66,0,0,1,436,578.49Z" transform="translate(-155.92 -117.01)"/><path d="M390.61,563.18a2.12,2.12,0,0,0-1.57,2.57l3,12.44a2.14,2.14,0,1,1-4.15,1,2.13,2.13,0,0,0-4.15,1,6.4,6.4,0,0,0,12.44-3h0l-3-12.43A2.12,2.12,0,0,0,390.61,563.18Z" transform="translate(-155.92 -117.01)"/><path d="M404.05,564.3l4.15-1a2.14,2.14,0,0,0-1-4.15l-4.14,1a6.4,6.4,0,0,0,3,12.44,2.13,2.13,0,0,1,1,4.14l-4.14,1a2.13,2.13,0,1,0,1,4.14l4.15-1a6.4,6.4,0,0,0-3-12.44,2.14,2.14,0,1,1-1-4.15Z" transform="translate(-155.92 -117.01)"/><circle cx="236.56" cy="399.61" r="2.13"/><circle cx="219.97" cy="403.64" r="2.13"/><circle cx="228.26" cy="401.62" r="2.13"/><path d="M357.74,527.25a2.13,2.13,0,0,1,2.57,1.57l2,8.29a6.4,6.4,0,0,0,7.73,4.71,2.13,2.13,0,0,0-1-4.14,2.15,2.15,0,0,1-2.58-1.57l-2-8.3a6.38,6.38,0,0,0-2.6-3.76,6.37,6.37,0,0,0,.59-4.53l-2-8.29a2.15,2.15,0,0,1,1.57-2.58,2.13,2.13,0,1,0-1-4.14,6.4,6.4,0,0,0-4.71,7.73l2,8.29a2.13,2.13,0,0,1-1.57,2.57,2.14,2.14,0,1,0,1,4.15Z" transform="translate(-155.92 -117.01)"/><path d="M407.93,526a2.13,2.13,0,0,1-1.57,2.58,2.13,2.13,0,1,0,1,4.14,6.4,6.4,0,0,0,4.71-7.73l-2-8.29a2.13,2.13,0,0,1,1.57-2.58,2.13,2.13,0,1,0-1-4.14,2.15,2.15,0,0,1-2.58-1.57l-2-8.29a6.4,6.4,0,0,0-7.73-4.71,2.13,2.13,0,1,0,1,4.14,2.14,2.14,0,0,1,2.57,1.57l2,8.3a6.37,6.37,0,0,0,2.59,3.76,6.42,6.42,0,0,0-.58,4.53Z" transform="translate(-155.92 -117.01)"/><polygon points="282.92 35.78 329.92 147.64 379.78 145.8 421.44 118.39 394.84 0 282.92 35.78"/><polygon class="cls-1" points="384.77 44.71 350.92 55.54 331.13 61.86 337.04 75.91 355.54 70 388.12 59.58 398.14 104.17 371.97 121.38 371.95 121.39 340.67 122.55 331.41 100.51 345.48 96.01 350.29 107.44 367.26 106.7 367.27 106.68 367.27 106.68 381.54 97.44 377.32 78.61 360.06 84.12 360.06 84.12 328.74 94.14 311.3 52.65 346.41 41.43 381.51 30.2 384.77 44.71"/><polygon points="0 245.62 0.75 361.27 45.35 377.77 92.02 368.77 111.63 254.78 0 245.62"/><polygon class="cls-2" points="86.81 290.54 84.34 304.86 76.92 347.78 47.35 353.41 47.32 353.41 19.08 343.04 18.91 320.26 33.07 321.42 33.16 333.24 48.53 338.77 48.54 338.76 64.63 335.81 68.38 316.44 18.87 312.52 18.56 299.04 70.7 302.7 72.92 288.48 18.38 284.16 18.55 270.78 53.89 273.68 89.22 276.57 86.81 290.54"/><path d="M505.46,334.67,488.67,459,613,475.83l16.79-124.37ZM606.73,467.56,496.94,452.73l14.83-109.79,109.79,14.83Z" transform="translate(-155.92 -117.01)"/><g class="cls-3"><path d="M553.46,442l-8.79-1.19-6.9-17.45a18.62,18.62,0,0,1-.61-2.21l-.12,0c-.26.44-.64,1.08-1.21,2l-11.54,15-8.87-1.2,17.51-20.29-10.34-23.81,9,1.22,6,16c.38,1.06.71,2.09,1,3.15h.1c.78-1.21,1.43-2.18,2-2.88l10.31-13.69,8.24,1.11-16.62,20.12Z" transform="translate(-155.92 -117.01)"/><path d="M584.53,446.14l-7.17-1,.73-5.37-.12,0a12.44,12.44,0,0,1-20.22-.82q-2.94-4.71-1.94-12c.71-5.22,2.56-9.25,5.56-12a12.71,12.71,0,0,1,11-3.31c4.25.57,7.13,2.69,8.61,6.38h.12l2.65-19.57,7.16,1-6.32,46.79Zm-5.12-15.38.56-4.13a8.13,8.13,0,0,0-1.42-6,7.41,7.41,0,0,0-5.27-3.11,7.62,7.62,0,0,0-6.72,2.13c-1.8,1.79-2.95,4.45-3.43,8-.43,3.2,0,5.85,1.19,7.9a7.24,7.24,0,0,0,5.57,3.6,7.47,7.47,0,0,0,6.32-1.9A10.26,10.26,0,0,0,579.41,430.76Z" transform="translate(-155.92 -117.01)"/></g><path d="M256.5,197.73l-6.95-1.82-26,36.37,8.09,2.11,6.33-9.1L252.09,229,253.21,240l8.08,2.11Zm-15.77,22.38,10-14.36,1.42,17.34Z" transform="translate(-155.92 -117.01)"/><rect x="257.29" y="225.27" width="30.83" height="7.88" transform="translate(-174 317.98) rotate(-75.33)"/><rect x="274.77" y="202.42" width="7.82" height="7.88" transform="translate(-147.43 306.7) rotate(-75.33)"/><path d="M210.43,139.66,178.66,261.07l121.41,31.77,31.77-121.41Zm84.39,144.21L187.63,255.82l28.05-107.19,107.19,28.05Z" transform="translate(-155.92 -117.01)"/></svg>