<?xml version="1.0" encoding="utf-8"?>
<!-- Generator: Adobe Illustrator 24.1.1, SVG Export Plug-In . SVG Version: 6.00 Build 0)  -->
<svg version="1.1" id="Capa_1" xmlns="http://www.w3.org/2000/svg" xmlns:xlink="http://www.w3.org/1999/xlink" x="0px" y="0px"
	 viewBox="0 0 512 512" style="enable-background:new 0 0 512 512;" xml:space="preserve">
<style type="text/css">
	.st0{enable-background:new    ;}
</style>
<g>
	<g>
		<path d="M0,0v512h512V0H0z M482,482H30V30h452V482z"/>
	</g>
</g>
<g class="st0">
	<path d="M265.2,348.2H229l-37.4-66.8c-1.1-2-2.3-4.9-3.7-8.6h-0.5c-0.8,1.9-2,4.7-3.8,8.6l-38.5,66.8h-36.5l59.7-91.6L113.5,166h37
		l32.9,61.5c2.1,4.1,4,8.1,5.7,12.2h0.4c2.5-5.3,4.6-9.6,6.4-12.7l34.2-61H264l-56.2,90.4L265.2,348.2z"/>
	<path d="M393.1,348.2h-29.5v-22.1h-0.5c-9.5,16.8-24.1,25.2-43.8,25.2c-16,0-28.8-5.8-38.4-17.5c-9.6-11.6-14.4-27.5-14.4-47.6
		c0-21.5,5.3-38.8,15.9-51.7c10.6-13,24.8-19.4,42.5-19.4c17.5,0,30.3,7,38.3,21.1h0.5v-80.6h29.5V348.2z M364,288.8v-17
		c0-9.2-3-17.1-9-23.5c-6-6.4-13.7-9.7-23-9.7c-11,0-19.7,4.1-26,12.3c-6.3,8.2-9.5,19.6-9.5,34.2c0,13.2,3,23.7,9.1,31.3
		c6.1,7.7,14.2,11.5,24.5,11.5c10.1,0,18.3-3.7,24.5-11.1C360.9,309.4,364,300,364,288.8z"/>
</g>
</svg>
